# xmcd CD database file
#
# Track frame offsets:
#	150
#	28170
#	54479
#	80080
#	111032
#	146071
#	172269
#	192735
#	219228
#	243469
#
# Disc length: 3625 seconds
#
# Revision: 0
# Processed by: cddbd v1.5.2PL0 Copyright (c) Steve Scherf et al.
# Submitted via: CDex 1.70beta2
#
DISCID=980e270a
DTITLE=Martin Wind - Light Blue
DYEAR=2017
DGENRE=Jazz
TTITLE0=While I'm Still Here
TTITLE1=Rose
TTITLE2=Ten Minute Song
TTITLE3=February
TTITLE4=Power Chords
TTITLE5=A Genius and a Saint
TTITLE6=Seven Steps to Rio
TTITLE7=A Sad Story
TTITLE8=De Norte a Sul
TTITLE9=Longing
EXTD=YEAR: 2017
EXTT0=
EXTT1=
EXTT2=
EXTT3=
EXTT4=
EXTT5=
EXTT6=
EXTT7=
EXTT8=
EXTT9=
PLAYORDER=
